<?xml version="1.0" encoding="UTF-8" standalone="no"?>
<svg
   width="11.736114in"
   height="13.834367in"
   viewBox="0 0 845.00028 996.07398"
   version="1.1"
   id="svg3"
   sodipodi:docname="fig1.svg"
   xmlns:inkscape="http://www.inkscape.org/namespaces/inkscape"
   xmlns:sodipodi="http://sodipodi.sourceforge.net/DTD/sodipodi-0.dtd"
   xmlns="http://www.w3.org/2000/svg"
   xmlns:svg="http://www.w3.org/2000/svg">
  <defs
     id="defs7" />
  <sodipodi:namedview
     id="namedview5"
     pagecolor="#ffffff"
     bordercolor="#999999"
     borderopacity="1"
     inkscape:showpageshadow="0"
     inkscape:pageopacity="0"
     inkscape:pagecheckerboard="0"
     inkscape:deskcolor="#d1d1d1"
     inkscape:document-units="in"
     showgrid="false" />
  <path
     id="fig1"
     fill="none"
     stroke="#000000"
     stroke-width="1"
     d="m 691.50004,65.551981 c -7.54,-2.19 -15.4,-3.9 -21.41,-9.43 -11.84,-10.91 -12.91,-32.85 -1.41,-44.39 8.94,-8.9600002 17.85,-8.0400002 28.82,-11.18000016 6.23,5.00999996 14.14,2.86999996 22.04,15.00000016 10.67,16.4 3.87,42.64 -16.04,48.36 -2.76,0.8 -6.12,0.64 -9.09,0.64 0,0 0,37.089999 0,37.089999 0,0 -0.9,9.91 -0.9,9.91 0,0 0.99,20 0.99,20 0,0 0,56 0,56 0,0 0.89,12.83 0.89,12.83 0,0 -0.89,59.17 -0.89,59.17 0,0 0.84,24 0.84,24 0,0 -0.84,16 -0.84,16 0,0 0,29 0,29 0,0 0.9,15 0.9,15 0,0 0,13 0,13 0,0 0,10 0,10 0,0 -0.9,33 -0.9,33 -0.01,5.5 0.04,13.45 4.61,17.4 1.61,1.39 14.42,3.48 17.39,4.02 9.26,1.69 18.66,5.16 27,9.52 11.33,5.92 27.96,18.14 35.83,28.06 5.43,6.84 8.15,12.45 12.11,20 3.38,6.44 6.52,12.94 8.42,20 10.48,38.86 -1.97,84.65 -33.36,110.54 -5.01,4.13 -12.49,10.27 -18,13.37 -11.63,6.54 -36.82,11.55 -36.94,28.09 -0.01,1.59 0.09,3.23 0.96,4.61 1.07,1.71 8.14,7.17 10.15,8.13 2.89,0.29 15.27,-0.02 18.83,0 0,0 21.98,0 21.98,0 0,0 8.06,0 8.06,0 0,0 9.96,0 9.96,0 0,0 24,0 24,0 0,0 20,1.26 20,1.26 3.7,0.01 8.65,-0.36 11.79,1.85 4.4,3.11 4.2,8.38 4.21,13.15 0,0 1,30 1,30 0,0 -0.87,30 -0.87,30 0,0 0,19 0,19 0,0 0.73,20 0.73,20 0,0 -0.86,50 -0.86,50 0.01,7.61 2.83,24.35 -2.01,30.61 -3.77,4.88 -17.11,4.34 -22.99,4.39 0,0 -46,0 -46,0 0,0 -14,-0.75 -14,-0.75 0,0 -8,0.74 -8,0.74 0,0 -20,0 -20,0 0,0 -20,0 -20,0 -2.2,0.01 -7.83,0.25 -9.61,-0.56 -1.57,-0.72 -3.87,-3.94 -5.39,-5.43 0,0 0,66 0,66 -0.01,5.64 1.01,14.11 -3.3,18.32 -6.65,6.5 -20.89,4.77 -29.7,4.58 0,0 -13,0 -13,0 0,0 -10,-0.74 -10,-0.74 0,0 -13,0 -13,0 0,0 -9,0 -9,0 0,0 -13,0.84 -13,0.84 0,0 -58,-0.82 -58,-0.82 0,0 -12,0.82 -12,0.82 0,0 -21,0 -21,0 0,0 -23,0 -23,0 0,0 -16,-0.96 -16,-0.96 0,0 -13,0.96 -13,0.96 0,0 -11,0 -11,0 -1.15,10.8 -8.66,15.41 -19,12.55 -3.72,-1.03 -6.42,-2.42 -8.66,-5.65 -1.57,-2.26 -2.29,-5.43 -4.61,-6.88 -2.39,-1.49 -10.63,-1.05 -13.73,-1.02 0,0 -11,0.91 -11,0.91 0,0 -13,-0.76 -13,-0.76 0,0 -47,0 -47,0 0,0 -11,0.75 -11,0.75 0,0 -24,0 -24,0 0,0 -34,-0.9 -34,-0.9 0,0 -20,1 -20,1 0,0 -54,-1 -54,-1 0,0 -18,1 -18,1 0,0 -15,-0.91 -15,-0.91 -7.19,-0.49 -15.78,0.44 -20.05,-7.11 -1.56,-2.75 -1.51,-8.77 -1.09,-11.98 0,0 0,-9 0,-9 0,0 0,-13 0,-13 0,0 -0.69,-18.58 -0.69,-18.58 0,0 0.83,-27.42 0.83,-27.42 0,0 -6.09,3.42 -6.09,3.42 -2.31,0.81 -7.29,0.58 -9.91,0.58 0,0 -16,1 -16,1 0,0 -16.000001,-1.21 -16.000001,-1.21 0,0 -28.61,0 -28.61,0 0,0 -17.39,0 -17.39,0 0,0 -20,0 -20,0 -11.4600003,0.19 -13.9800003,-2.33 -14.0000003,-13.79 0,0 0,-16 0,-16 0,0 -0.68,-10 -0.68,-10 0,0 0,-6.82 0,-6.82 0,0 0,-68.18 0,-68.18 0,0 0.68,-17 0.68,-17 0,0 0,-40 0,-40 0.06,-7.86 -1.61,-22.16 7.0900003,-25.99 2.65,-1.17 6.06,-1.01 8.91,-1.02 0,0 27.83,0 27.83,0 0,0 56.170001,0 56.170001,0 0,0 27,0 27,0 3.45,-0.6 5.11,-2.15 7.8,-4.23 6.36,-5.13 6.01,-9.67 0,-15.66 -3.79,-3.93 -7.11,-4.61 -11.8,-6.9 0,0 -27,-12.96 -27,-12.96 -23.810001,-14.16 -45.710001,-43.49 -50.000001,-71.24 0,0 -18,3 -18,3 0,0 -1,-3 -1,-3 0,0 -13.73,1.31 -13.73,1.31 0,0 -7.27,13.69 -7.27,13.69 0,0 4,1 4,1 -6.29,2.62 -9.4100003,2 -16.00000026,2 0,0 0,-3 0,-3 5.44999996,-1.72 5.12999996,-4.29 7.88999996,-9 3.8500003,-6.59 9.8600003,-18.83 12.1100003,-26 -3.8,-0.1 -5.69,0.31 -8,-3 0,0 25,0 25,0 0,0 -1,-3 -1,-3 0,0 4,-3 4,-3 0,0 -1,-1 -1,-1 -3.57,0.45 -3.39,0.48 -6,-2 0,0 12,-1 12,-1 0.95,6.06 -0.83,9.26 -7,10 1.33,1.9 2.73,3.64 3.17,6 1.07,5.77 -4.24,13.29 -8.17,17 3.24,-0.44 15.42,-1.72 16.81,-4.31 1.22,-2.28 -0.53,-8.98 -0.91,-11.65 -0.82,-4.47 -0.34,-13.43 0,-18.04 1.79,-19.63 10.02,-43.56 22.41,-59 16.26,-20.25 31.260001,-31.06 55.690001,-40 6.34,-2.32 13.32,-3.61 20,-4.57 3.24,-0.47 7.94,0.04 10.4,-2.03 7.03,-5.88 4.61,-17.46 4.72,-25.4 0,0 0,-41 0,-41 0,0 0,-10 0,-10 0,0 0,-73 0,-73 0,0 0,-9 0,-9 0,0 0,-10 0,-10 0,0 0,-56 0,-56 0,0 -0.74,-11 -0.74,-11 0,0 0.62,-15 0.62,-15 0,0 0,-44 0,-44 0,0 -0.96,-13 -0.96,-13 0,0 0.96,-23.999999 0.96,-23.999999 0,0 0,-16 0,-16 -8.33,-0.39 -17.14,-3.87 -22.7,-10.32 -13.54,-15.69 -9.44,-42.2 10.7,-50.1400002 4.41,-1.73 7.26,-2.47 12,-2.54 7.21,-0.09 11.6,-0.18 18,3.86 26.25,16.5600002 17.24,58.8400002 -15,59.1400002 1.3,5.35 0.87,5.82 0.77,10.96 0,0 0,27.039999 0,27.039999 0,0 -0.76,18 -0.76,18 0,0 0.99,12 0.99,12 0,0 0,23 0,23 0,0 -0.95,10 -0.95,10 0,0 0,17 0,17 0,0 1.16,17 1.16,17 0,0 0,16 0,16 0,0 0,9 0,9 0,0 -0.59,16 -0.59,16 0,0 0,11.99 0,11.99 0,0 0,13.01 0,13.01 -0.23,4.77 1.21,3.35 0.94,15 0,0 0.95,11 0.95,11 0,0 -1.42,7 -1.42,7 0,0 0,9 0,9 0,0 0.83,12 0.83,12 0,0 -1.58,11 -1.58,11 0,0 1.34,21 1.34,21 0,0 -0.78,10 -0.78,10 0,0 0,27 0,27 0,0 -0.9,12 -0.9,12 -0.01,6.1 0.78,7.69 -4,12 8.53,1.53 7.46,0.54 14,1.17 0,0 21.17,3.56 21.17,3.56 13.58,3.44 26.32,10.53 37.83,18.27 2.17,-5.55 7.14,-13.19 13,-15 -2.26,5.8 -6.59,11.83 -12,15 0,0 0,2 0,2 10.34,5.19 21.33,20.22 27.42,30 12.45,19.99 16.62,36.65 16.58,60 -0.05,30.85 -11.89,59.28 -34.09,80.83 -10.62,10.32 -22.47,16.93 -35.91,22.84 -6.9,3.03 -18.3,5.4 -22.44,11.35 -3.14,4.5 -3.19,21.74 -2.63,27.56 0.24,2.44 1.58,5.28 3.03,7.24 6.19,8.33 13.69,5.07 22.04,6.65 4.48,0.84 7.07,2.46 11,4.53 4.15,-5.96 12.71,-1.63 18,-1.46 2.36,0.08 5.69,-0.91 8,-1.54 -4.37,-9.41 -0.85,-6.77 -1.31,-12.17 -0.3,-3.48 -4.01,-9.75 4.33,-12.95 6.69,-2.16 10.04,1.52 13.76,0 2.52,-1.41 3.13,-4.34 5.49,-6.45 2.15,-1.92 4.96,-2.55 7.73,-2.99 6.47,-1.02 15.43,0.31 22,0.52 0,0 13,-0.75 13,-0.75 0,0 8,0.67 8,0.67 0,0 19.72,0 19.72,0 0,0 11.28,-0.79 11.28,-0.79 0,0 24.09,0 24.09,0 0,0 11.91,0.81 11.91,0.81 0,0 19.01,0 19.01,0 4.13,0.48 3.66,0.02 6.99,0 3.42,-0.61 8.41,0.69 13,0 3.39,-0.81 5.7,-2.76 9,-2.65 4.71,0.15 3.41,2.73 14,2.62 0,0 28,0 28,0 0,0 19,-0.01 19,-0.01 0,0 14,0 14,0 0,0 10,0 10,0 0,0 18,0 18,0 0,0 14,0.96 14,0.96 0,0 9,-0.84 9,-0.84 0,0 10,0 10,0 0,0 9.28,0 9.28,0 4.77,-0.94 8.78,-4.92 14.66,-1.13 3.39,2.19 3.86,5.14 6.34,7.94 2.38,2.68 5.4,3.76 6.15,7.94 1.07,5.95 -9.65,15.24 -2.25,20.22 3.82,2.57 7.31,-0.31 11.82,-0.75 4.05,-0.4 6.31,0.92 9,0.82 3.62,-0.14 4.13,-1.92 12,-2.02 8.37,-0.1 26.77,0.51 31.8,-7.46 3.31,-5.25 2.14,-21.79 2.2,-28.54 0.06,-6.13 0.48,-13.02 -6.05,-16.36 0,0 -20.95,-7.65 -20.95,-7.65 -10.49,-4.77 -27.46,-17.38 -34.92,-26.03 -5.57,-6.46 -11.98,-16.3 -15.81,-23.96 -1.53,-3.06 -3.85,-10.38 -6.54,-11.97 -2.35,-1.33 -8.01,-0.36 -10.73,0 1.84,-4.45 7.83,-3.03 12,-3.03 -2.16,-6.66 -2.64,-10.22 -3.75,-17 -0.81,-4.92 -2.39,-13.38 -2.21,-18 0.5,-12.82 2.9,-24.94 7.26,-37 1.91,-5.28 6.79,-14.21 9.88,-19 1.58,-2.46 5.05,-7.08 4.98,-10 -0.14,-4.93 -8.78,-10.26 -11.16,-19 6.56,3.1 11.24,9.4 14,16 4.74,-3.39 5.46,-5.12 9.32,-8.63 0,0 15.68,-12.47 15.68,-12.47 17.78,-12.13 41.75,-17.61 63,-15.9 0,0 -3.78,-9 -3.78,-9 0,0 0.69,-15 0.69,-15 0,0 -1.09,-13 -1.09,-13 0,0 0,-12 0,-12 0,0 0,-45 0,-45 0,0 0,-9 0,-9 0,0 0,-16 0,-16 0,0 0,-42 0,-42 0,0 -0.77,-12 -0.77,-12 0,0 0,-17 0,-17 0,0 0.95,-45 0.95,-45 0,0 -0.62,-15.99 -0.62,-15.99 0,0 0,-22.97 0,-22.97 0,0 0,-8.77 0,-8.77 0,0 0,-19.27 0,-19.27 0,0 0,-7 0,-7 0,0 0,-10 0,-10 0,0 0.62,-34.999999 0.62,-34.999999 z m -2,-60.6700002 c -8.42,1.8 -16.09,5.01 -20.79,12.6700002 -9.15,14.91 -5.68,31.56 9.79,40.32 5.76,3.27 10.39,4.7 17,3.74 6.58,-0.95 13.07,-3.49 17.87,-8.24 18.68,-18.52 1.33,-50.6400002 -23.87,-48.4900002 z m -528,1.25 c -4.47,0.43 -8.03,1.58 -11.99,3.74 -25.94,14.1500002 -14.06,53.8500002 15.99,52.6400002 27.69,-1.12 35.91,-34.72 15.83,-51.58 -5.23,-4.4000002 -13.31,-4.5100002 -19.83,-4.8000002 z m 77,5.4200002 c 0,0 4,-1.8900002 4,-1.8900002 0,0 2.99,-1.88 2.99,-1.88 8.89,-4.77 2.06,6.7800002 2.01,12.7700002 0,0 -8,0 -8,0 0,0 0,-2 0,-2 0,0 4,-7 4,-7 0,0 -5,0 -5,0 z m 528,2 c 0.55,-3.35 1.4,-5.8800002 5.02,-7.0900002 4.5,-1.51 7.74,2.85 6.22,7.0000002 -0.86,2.37 -3.43,4.42 -5.24,6.09 0,0 5,-1 5,-1 -1.95,6.12 -4.68,4.37 -11,5 0,0 -1,-1 -1,-1 3.82,-8 7.59,-5.87 7,-13.0000002 -2.2,3.1900002 -2.16,3.3300002 -6,4.0000002 z m -562,4 c 4.51,-3.99 23.12,-5.62 26.3,1.11 3.17,6.72 -1.24,19.55 -4.23,25.89 -0.89,1.88 -2.27,5.03 -3.71,6.44 -5.03,4.91 -21.38,5.43 -28.36,5.56 0,0 4.59,-7.04 4.59,-7.04 2.96,-5.96 3.97,-12.73 6.1,-18.96 1.75,-5.1 5.07,-9.66 -0.69,-13 z m 528,-1 c 5.5,-0.73 21.09,-2.55 25.43,0.9 2.64,2.11 2.69,6.02 2.48,9.1 -0.4,5.94 -4.63,21.72 -9.12,25.46 -5.84,4.85 -24.05,6.53 -31.79,6.54 0,0 0,-3 0,-3 8.03,-0.65 8.43,-5.2 10.42,-12 0,0 6.58,-25 6.58,-25 0,0 -4,-2 -4,-2 z m -506,1 c 0,0 -10,0 -10,0 0,0 -11,34 -11,34 3.57,-0.01 6.83,0.28 9.98,-1.74 7.5,-4.78 10.94,-23.78 11.02,-32.26 z m 528,1.03 c -2.25,-0.21 -6.66,-1.16 -8.49,0 -2.05,1.36 -3.09,6.59 -3.94,8.97 -2.33,6.45 -8.11,20.75 -7.57,27 3.26,-0.88 6.2,-1.29 8.96,-3.43 7.35,-5.7 11.01,-23.56 11.04,-32.54 z m -426,68.97 c 2.65,-3.93 4.3,-2.34 8.42,-3.17 7.76,-1.13 6,0.26 11.58,0 0,0 14,-0.83 14,-0.83 2.23,0.02 6.35,-0.37 7.22,2.31 1.69,5.23 -9.93,21.519999 -9,7.11 0,0 0.78,-4.61 0.78,-4.61 -2.46,-0.02 -9.91,-0.96 -11.79,0 -4.38,1.58 -7.45,10.87 -7.21,15.189999 0,0 2,0 2,0 1.75,-4.449999 2.67,-5.839999 7,-7.999999 -0.64,5.959999 -7.42,19.199999 -12,22.999999 0,0 -1,-9 -1,-9 0,0 -2,0 -2,0 0,0 -8,19 -8,19 0,0 4,0 4,0 0,0 0,3 0,3 0,0 -21,1 -21,1 0,0 0,-2 0,-2 1.57,-0.5 4.51,-1.21 5.79,-2.01 3.72,-2.33 8.66,-14.62 10.81,-18.99 3.26,-6.61 8.44,-15.129999 10.4,-21.999999 0,0 -10,0 -10,0 z m 101,5 c 3.58,-3.58 4.51,-2.78 9,-4.1 2.57,-0.76 8.21,-4.26 10.36,-2.77 2.88,1.98 -1.53,10.48 -2.58,12.87 0,0 -7.92,18.999999 -7.92,18.999999 -1.05,2.51 -3.14,6.38 -3.22,9 -0.07,1.93 0.8,4.15 1.36,6 -4.1,1.15 -12.86,1 -17,0 0,0 0,-2 0,-2 6.96,-3.18 6.95,-5.41 10.25,-12 4.28,-8.57 7.61,-17.64 9.75,-26.999999 -4.28,2.25 -5.37,2.3 -10,1 z m -55.52,-4.96 c 5.83,-1.9 5.85,3.28 3.21,4.31 -2.19,0.84 -5.98,-0.53 -3.21,-4.31 z m 30.52,16.959999 c 2.08,-6.319999 2.51,-6.299999 9,-5.999999 -0.95,6.049999 -5.74,15.849999 -8.31,21.999999 -4.53,10.84 -9.77,24.52 -16.81,34 -4.05,5.46 -7.61,12.29 -14.88,13.66 -4.31,0.81 -10.08,-0.22 -12.85,-3.91 -2.19,-2.91 -3.21,-8.44 0.98,-10.14 7.06,-2.85 5.49,5.87 3.87,9.53 2.57,0.46 4.35,0.99 7,0 8.31,-2.49 14.87,-18.62 18.27,-26.14 1.98,-4.38 3.77,-7.22 4.73,-12 -1.9,1.85 -3.78,3.83 -6,5.3 -7.85,5.19 -14.72,0.57 -13.77,-7.3 0.71,-5.98 7.83,-18.82 12.81,-22.11 3.21,-2.129999 10.02,-3.869999 13.27,-1.06 1.21,1.05 1.95,2.78 2.69,4.17 z m -45,-3 c 0,0 15,-1.999999 15,-1.999999 -3.11,9.779999 -14.2,19.609999 -14,29.999999 0,0 9,-4 9,-4 -6.01,12.38 -13.19,5.6 -20,5 0,0 -1,-1 -1,-1 0,0 0,-2 0,-2 0,0 5.61,-4.21 5.61,-4.21 0,0 10.39,-19.79 10.39,-19.79 -3.16,0.42 -3.16,0.65 -5,-2 z m 23,28 c 8.91,-2.01 14.48,-8.7 17.67,-17 1.26,-3.27 2.13,-9 -1.89,-10.85 -3.39,-1.55 -6.5,2.38 -7.98,4.89 -4.3,7.29 -8.65,14.26 -7.8,22.96 z m 22.71,-0.96 c 3.73,-1.09 3.86,1.99 2.6,3.32 -1.45,1.55 -5.16,0.77 -2.6,-3.32 z m -112.71,244.96 c 0.21,-0.6 0.16,-1.38 1,-2.43 0.78,-0.97 10.66,-6.72 12.22,-1.42 1.26,4.3 -3.2,4.81 -1.22,12.85 -5.24,1.39 -9.81,3.73 -11,-3 0,0 3,1 3,1 0,0 1,-7 1,-7 0,0 -5,0 -5,0 z m -41,24 c 3.75,2.65 2.3,5.34 5.38,8.67 3.89,4.22 13.39,6.73 13.98,-1.67 0.47,-6.65 -14.93,-16.81 -7.76,-25.54 0.96,-1.18 3.06,-2.48 4.4,-3.33 9.44,-4.99 9.95,2.68 19,0 0,0 -3,12.87 -3,12.87 -6.16,-3.23 -2.59,-7.62 -8.04,-9.34 -4.43,-1.41 -5.79,2.83 -4.98,6.33 1.02,4.4 12.9,17.5 3.79,25.4 -6.62,5.82 -16.34,0.39 -18.35,0 -1.68,-0.39 -5.4,0.42 -7.42,0.61 0,0 3,-14 3,-14 z m 352,-5 c 0.74,-2.77 1.21,-5 4.13,-6.26 5.9,-2.55 13.36,2.75 8.92,8.83 -1.17,1.62 -5.13,3.3 -7.05,4.43 0,0 9,-1 9,-1 -3.67,5.93 -5.4,1.2 -14,4 0.08,-8.13 13.16,-6.77 7.63,-13.78 -0.78,-0.99 -1.69,-1.48 -2.63,-2.22 -0.38,4.57 -0.61,5.37 -5,7 0,0 -1,-1 -1,-1 z m -37,20 c 1.2,4.37 0.07,9.26 3.43,12.57 3.89,3.83 12.47,2.77 12.75,-3.57 0.32,-7.1 -12.17,-10.54 -10.75,-19 1.68,-9.99 15.06,-13.14 20.57,-4 0,0 5,-3 5,-3 0.53,5.18 -1.4,10.31 -6,13 -0.22,-4.5 -0.74,-8.43 -4.97,-11.04 -4.5,-2.78 -9.56,0.69 -9.55,4.04 0,4.63 9.29,8.47 12.78,14.01 3.38,5.37 -0.4,9.91 -2.26,14.99 -4.78,0.63 -9.15,1.57 -14,0.52 -7.25,-1.57 -5.32,-4.77 -14,-3.52 -1.22,-5.32 2.76,-10.26 5,-15 0,0 2,0 2,0 z m -404,8 c 0,0 -2,5 -2,5 5.92,1.68 8.28,0.55 14,1.44 15.12,2.36 23.12,4.47 37,10.93 0,0 10.98,6.19 10.98,6.19 1.26,0.43 3.06,0.67 3.68,-0.89 1.39,-3.48 -10.07,-9.41 -12.66,-10.78 -7.61,-4.03 -22.46,-9.37 -31,-10.59 -6.82,-0.97 -13.17,0.64 -20,-1.3 z m -5,1 c -22.73,0 -47.87,9.88 -64.280001,25.59 -6.37,6.09 -12.89,10.43 -14.72,19.41 0,0 -2,-2 -2,-2 0,0 -5.65,9 -5.65,9 -4.85,8.32 -9.57,21.57 -11.69,31 -8.63,38.55 4.95,77.58 34.34,103.83 8.040001,7.18 18.110001,13.11 28.000001,17.35 12.46,5.34 18.34,4.65 28.81,15.91 6.45,6.92 4.32,10.86 5.06,13.91 0,0 4.13,8 4.13,8 0,0 4,0 4,0 0,0 0,-10 0,-10 0,0 0.76,-10 0.76,-10 0.56,-8.13 -0.68,-12.5 9.24,-14.54 0,0 13,-2.34 13,-2.34 8.41,-2.01 22.55,-8.24 30,-12.7 26.26,-15.71 48.23,-50.09 46.96,-81.42 -1,-24.86 -4.57,-47.7 -21.96,-67 -5,-5.54 -10.63,-14.76 -19,-14 0,0 15.01,16.04 15.01,16.04 12.82,15.78 21.96,34.29 21.99,54.96 0.02,12.27 -0.3,26.29 -4.38,38 -10.74,30.79 -35.9,51.66 -66.62,60.71 -4.85,1.42 -12.12,3.65 -17,4.05 0,0 -9,0 -9,0 -15.39,-0.23 -26.83,-2.94 -41,-8.77 -11.49,-4.73 -23.200001,-13.04 -31.730001,-22.06 -16.09,-17.03 -20.77,-28.49 -25.69,-50.93 -1.41,-6.42 -2.83,-13.41 -2.54,-20 0,0 1.88,-11 1.88,-11 1.69,-9.56 3.81,-18.14 7.97,-27 15.92,-33.89 49.100001,-56 86.110001,-59 0,0 0,-5 0,-5 z m 538,4.16 c 0,0 -11,0 -11,0 -19.36,2.21 -38.19,9.65 -54,20.88 -3.65,2.59 -14.78,11.46 -16.04,15.38 -0.79,2.44 0.63,3.87 2.04,5.58 14.71,-19.44 39.74,-33.33 64,-35.92 0,0 16,0 16,0 0,0 -1,-5.92 -1,-5.92 z m -2,237.84 c 12.3,-0.99 8.36,-12.34 10.61,-21 1.65,-6.36 5.11,-10.17 10.39,-13.89 0,0 27,-11.59 27,-11.59 18.08,-9.46 33.46,-25.41 42.74,-43.52 4.68,-9.14 11.39,-28.86 10.5,-39 0,0 0,-13 0,-13 -0.26,-15.71 -7.32,-36.83 -15.79,-50 -4.31,-6.7 -6.49,-8.31 -11.84,-13.61 -13.29,-13.18 -22.62,-19.98 -40.61,-26.06 -9.18,-3.1 -17.24,-5.32 -27,-5.33 0,0 0,5 0,5 39,0.12 74.85,31.01 86.8,67 2.43,7.32 4.16,17.29 4.2,25 0.03,5.81 -0.4,10.25 1,16 -3.54,3.05 -3.12,8.94 -3.89,13.27 -0.56,3.13 -3.08,9.8 -4.47,12.73 -8.5,17.86 -22.64,33.91 -39.64,44.17 -9.72,5.88 -20.78,9.64 -32,11.11 0,0 -14,1.68 -14,1.68 -3.79,0.12 -22.37,-1.86 -26,-2.87 -37.53,-10.45 -64.69,-41.57 -69.58,-80.09 -0.8,-6.34 -1.56,-5.23 -1.41,-13 0.24,-12.17 3.6,-23.93 8.41,-35 2.92,-6.7 8.05,-12.6 8.58,-20 -3.71,2.73 -5.97,7.87 -7.86,12 -3.95,8.65 -6.19,12.31 -8.49,22 -2.55,10.81 -2.67,19.08 -2.65,30 0.02,10.94 1.62,14.07 5.14,24 7.79,22 17.73,36.75 37.86,49.56 9.25,5.9 21.24,11.6 32,13.93 5.86,1.27 15.62,0.83 19.49,5.65 3,3.74 1.52,10.17 1.51,14.86 -0.01,7.54 0.36,12.43 -1,20 z m -536,-234 c -10.49,1.88 -20.95,3.22 -31,7.06 -20.04,7.67 -40.330001,25.69 -50.010001,44.94 -10.27,20.4 -14.33,48.92 -7.67,71 6.94,22.99 25.33,47.22 46.680001,58.46 4.31,2.27 13.16,5.15 18,6.54 7.11,2.04 14.57,3.91 22,4 8.06,0.09 21.37,0.2 29,-1.53 4.8,-1.08 11.49,-3.92 16,-6 24.62,-11.31 44.69,-32.14 52.56,-58.47 3.87,-12.94 2.5,-21.96 2.44,-35 -0.09,-19.12 -8.32,-37.87 -21.07,-52 -5.12,-5.66 -8.66,-12.33 -16.93,-12 -1.95,-6.32 -7.48,-8 -13,-10.82 -5.92,-3.03 -19.47,-7.63 -26,-8.35 0,0 -17,-0.83 -17,-0.83 0,0 -1,4 -1,4 15.32,0 34.62,3.96 48,11.59 8.04,4.58 16.87,12.38 22.87,19.41 20.13,23.6 25.72,50.13 18.17,79.96 -3.29,13.03 -9.42,25.85 -18.63,35.87 -14.59,15.86 -30.03,23.06 -50.41,28.45 -8.12,2.16 -6.99,2.71 -16,2.72 -11.9,0.02 -22.84,-1.72 -34,-6 -7.46,-2.86 -16.38,-6.09 -22,-12 -5.01,-1.41 -12.740001,-9.85 -16.390001,-13.84 -12.15,-13.31 -16.56,-23.89 -20.4,-41.16 -1.87,-8.4 -2.42,-7.82 -2.44,-16.99 -0.12,-48.34 39.080001,-92.75 88.230001,-95.01 0,0 0,-4 0,-4 z m 65,18 c -13.02,-6.89 -28.95,-16.39 -44,-17.09 0,0 -7,0 -7,0 -4.82,0.04 -5.95,-1.11 -11,0 0,0 0,2.09 0,2.09 0,0 20,2.51 20,2.51 19.1,3.94 24.38,7.2 41,16.49 0,0 1,-4 1,-4 z m 473,-10.04 c -0.05,-4.63 -3.03,-3.95 -7,-3.96 -6.97,-0.01 -10.3,1.43 -17,2.8 -15.21,3.1 -28.99,10.78 -41,20.4 -5.54,4.44 -10.45,7.5 -12,14.8 0,0 17,-14.77 17,-14.77 15.19,-11.66 27.77,-17.78 47,-19.27 6.36,-0.55 6.21,-1.61 13,0 z m 5,-3.96 c -0.9,4.09 6.18,3.91 9,4.42 11.97,2.17 22.87,6.51 33,13.33 23.52,15.83 41.95,42.11 42,71.25 0,0 0,8 0,8 -0.07,44.67 -38.78,83.37 -83,85.91 0,0 -26,-1.42 -26,-1.42 -6.73,-1.39 -12.95,-4.41 -19,-7.55 -19.35,-10.06 -31.04,-21.38 -40.75,-40.94 -5.34,-10.75 -8.96,-24.97 -9.24,-37 -0.26,-11.58 3.5,-26.57 8.47,-37 0,0 7.52,-14 7.52,-14 0,0 -1,-1 -1,-1 0,0 -2,0 -2,0 -9.37,15.1 -13.86,28.37 -15.09,46 -0.24,3.44 -0.98,5.4 -0.73,9 1.12,15.66 5.4,29.41 13.45,43 2.73,4.61 7.88,12.13 11.54,15.91 14.88,15.38 40.29,27.36 61.83,28.05 0,0 10,-0.87 10,-0.87 24.06,-1.68 43.45,-8.88 60.83,-26.26 7.56,-7.56 13.03,-16.2 17.48,-25.83 7.77,-16.84 9.62,-27.59 7.86,-46 -1.18,-12.3 -1.04,-13.88 -5.17,-26 -4.66,-13.66 -12.09,-24.36 -22.58,-34.2 -11.51,-10.8 -23.32,-17.75 -38.42,-22.37 0,0 -20,-4.43 -20,-4.43 z m -543,4 c -48.33,0.44 -85.200001,44.09 -85.000001,91 0.14,31.05 20.22,63.46 48.000001,77.33 9.38,4.69 28.36,8.74 39,9.35 4.02,0.23 5.34,-0.34 9,-0.59 34.13,-2.39 65.31,-25.33 76.33,-58.09 2.74,-8.13 3.66,-10.31 3.67,-19 0,0 0,-15 0,-15 -0.11,-10.31 -2.02,-19.62 -6.39,-29 -5.18,-11.14 -16.73,-26.53 -26.65,-33.53 0,0 -15.96,-8.55 -15.96,-8.55 -4.59,-2.11 -9.08,-4.19 -14,-5.44 0,0 -24,-2.48 -24,-2.48 -0.75,5.63 2.01,4.46 9,4.94 8.85,0.61 22.95,4.57 31,8.36 23.7,11.16 43.69,40.19 44,66.7 0.16,13.84 -0.92,27.37 -7.11,40 -4.47,9.12 -14,21.44 -21.93,27.74 -14.71,11.69 -34.93,20.47 -53.96,20.26 -35.03,-0.4 -68.200001,-21.75 -80.560001,-55 -1.64,-4.4 -2.3,-8.45 -3.2,-13 -1.51,-7.59 -2.22,-5.28 -2.24,-14 0,0 0,-7 0,-7 0.24,-20.21 10.86,-39.26 23.850001,-54 2.51,-2.85 4.22,-5.16 7.16,-7.68 4.12,-3.51 11.2,-7.59 15.99,-10.44 6.25,-3.7 15.82,-6.93 23,-8.13 5.19,-0.86 9.17,0.46 11,-4.75 z m 538,1 c 0,0 -15,1.26 -15,1.26 -14.79,2.43 -32.35,9.83 -44,19.19 -3.11,2.5 -12.57,10.57 -13.12,14.44 -0.25,1.71 0.41,1.97 1.12,3.11 12.32,-16.47 31.65,-28.9 52,-32.54 15.84,-2.83 19.97,1.78 19,-5.46 z m 1,8 c -8.68,-2.47 -18.54,0.09 -27,2.59 -26.98,7.98 -44.09,24.12 -54.09,50.41 -5.51,14.5 -7.1,35 -2.99,50 0,0 5.36,14 5.36,14 3.01,6.98 6.25,13.11 11.18,18.99 7.59,9.03 21.68,19.18 32.54,24 8.69,3.86 20.46,7.21 30,7 0,0 8,-0.82 8,-0.82 15.4,-1.48 24.93,-2.49 39,-10.27 5,-2.77 11.2,-7.98 15.42,-11.9 12.77,-11.84 21.87,-26.94 25.9,-44 5.52,-23.32 -1.42,-54.24 -16.22,-72.96 -16.16,-20.46 -38.84,-30.71 -64.1,-34.04 1.74,4.25 6.9,3.7 11.04,4.54 8.77,1.77 17.21,5.42 24.96,9.89 7.86,4.53 11.63,8.33 18,14.56 0,0 7.24,7.18 7.24,7.18 11.67,14.11 17.97,32.61 17.76,50.83 -0.1,8.34 -3.47,27.47 -6.9,35 -2.45,5.38 -7.26,12.24 -10.95,16.91 -16.28,20.62 -39.78,32.11 -66.15,31.4 -5.46,-0.14 -15.98,-0.65 -21,-2.05 -7.47,-2.07 -15.52,-6.22 -22,-10.43 -5.43,-3.52 -7.88,-4.63 -12.91,-9.26 -12.76,-11.73 -20.32,-27.87 -23.88,-44.57 -0.81,-3.82 -2.02,-9.21 -2.17,-13 -0.66,-16.83 8.37,-41.34 19.26,-54 9.76,-11.36 25.13,-21.21 39.7,-24.87 6.74,-1.7 17.27,-3.7 24,-2.13 0,0 1,-3 1,-3 z m -539,-2 c -14.82,0.04 -30.88,5.97 -43,14.35 -5.56,3.84 -7.68,6.32 -12.12,11.23 -20.520001,22.7 -28.080001,54.13 -18.410001,83.42 1.93,5.86 8.7,16.83 12.39,22 6.990001,9.79 16.880001,19.35 28.140001,23.92 23.94,10.2 51.6,13.06 75,0 6.33,-3.72 13.72,-7.13 17,-13.92 0,0 -15,9.56 -15,9.56 -10.04,5.65 -28.42,11.78 -40,11.4 -27.3,-0.9 -54.93,-16.79 -68.100001,-40.96 -4.47,-8.2 -6.32,-15.66 -8.01,-24.72 -1.43,-7.73 -1.99,-5.18 -1.89,-14.28 0.11,-9.67 2.94,-21.1 6.66,-30 6.78,-16.2 22.630001,-32.68 38.340001,-40.48 6.33,-3.15 13.15,-5.17 20,-6.77 5.44,-1.28 7.27,0.19 9,-4.75 z m 55,248 c 0,0 -6.93,-0.74 -6.93,-0.74 -12.02,-1.14 -24.11,-3.21 -29.08,-16.26 -1.48,-3.89 -1.04,-13.48 -0.99,-18 0.08,-6.82 0.77,-13.49 5.39,-18.91 5.03,-5.9 15.42,-9.12 22.61,-11.72 9.15,-3.31 15.85,-6.93 24,-12.23 9.18,-5.97 12.33,-10.02 19.08,-18.14 13.21,-15.89 20.71,-29.41 24.17,-50 1.35,-8.05 1.1,-15.89 0.79,-24 -0.91,-23.27 -5.84,-39.05 -19.77,-58 -4.2,-5.7 -7.23,-9.04 -12.27,-14 -1.78,-1.75 -4.49,-4.67 -7,-5.18 -1.99,-0.4 -3.29,0.45 -5,1.18 0,0 0,2 0,2 10.2,7.04 17.73,16.57 24.19,27 3.18,5.14 6.06,9.32 8.36,15 7.95,19.68 8.12,40.45 4.25,61 0,0 -1.9,10 -1.9,10 -4.39,13.18 -16.65,32.13 -26.7,41.53 -11.97,11.17 -25.73,18.71 -41.2,23.8 0,0 -16,4.25 -16,4.25 -2.53,0.56 -6.14,0.87 -7.88,2.95 -4.59,5.5 -3.12,24.95 -3.12,32.47 0,0 -13,-1 -13,-1 0,0 0,25 0,25 0,0 13,0 13,0 0.74,10.14 2.2,34.93 0,44 0,0 -2,0 -2,0 -1.37,-5.62 -1.41,-18.14 -0.87,-24 0.48,-2.77 1.72,-9.11 0,-11.39 -1.73,-1.92 -4.95,-0.95 -7.13,-0.94 0,0 -18.84,-0.67 -18.84,-0.67 0,0 0,27.28 0,27.28 0,0 0.84,8.72 0.84,8.72 0,0 -4,0 -4,0 0,0 1,-44.02 1,-44.02 2.33,0.21 7.59,1.37 9.38,0 1.94,-1.53 1.37,-5.83 1.15,-7.98 0,0 -0.53,-21 -0.53,-21 -4.38,2.15 -5.4,4.33 -8.09,5.41 -3.6,1.43 -11.78,0.61 -15.91,0.59 0,0 -25.000001,0.83 -25.000001,0.83 0,0 -35,0 -35,0 0,0 -7,-0.81 -7,-0.81 0,0 -13,0 -13,0 0,0 -13,0.98 -13,0.98 -4.1,0.04 -12.46,-0.79 -15.61,1.74 -3.9400003,3.16 -3.21,8.79 -3.48,13.26 -1.9300003,17.74 0.03,12.84 0,25 0,0 0,15 0,15 0,0 -0.9100003,20 -0.9100003,20 0,0 0,22 0,22 0,0 1.0000003,16 1.0000003,16 0,0 0,22 0,22 0,0 -1.0600003,16 -1.0600003,16 0,0 0,19 0,19 -0.14,2.9 1.1200003,17.55 2.8000003,19.18 2.68,2.6 11.59,2.81 15.26,2.81 0,0 19,0 19,0 0,0 14,-0.92 14,-0.92 0,0 21,0.93 21,0.93 0,0 38.000001,0 38.000001,0 10.44,-0.02 14.98,-3.32 15.01,-14 0,0 0,-80 0,-80 0,0 0,-10 0,-10 -0.92,-4.62 -2.58,-3.52 -3.01,-11 0,0 -12,1 -12,1 0,0 -0.83,-15 -0.83,-15 0,0 0.83,-27 0.83,-27 0,0 3,0 3,0 0,0 1,35 1,35 0,0 26,-1 26,-1 0,0 0,-16 0,-16 0.03,-6.2 -0.95,-12.4 2,-18 2.07,5.75 1.05,25.74 1,33 -0.02,2.35 0.19,5.61 -1.6,7.4 -2.17,2.18 -8.39,1.6 -11.4,1.6 1.59,6.92 8,6.64 14,7.09 0,0 37,0.91 37,0.91 0,0 19,-1 19,-1 0,0 23,1 23,1 0,0 30,0 30,0 0,0 15,-0.98 15,-0.98 6.85,0.3 12.05,1.95 19,0 -2.05,-8.47 -0.95,-9.8 7,-12.02 0,0 2,5 2,5 5.85,-1.68 14.89,-6.63 16,-13 0,0 10,3 10,3 -1.13,5.34 -0.38,6.2 2,11 5.76,-5.95 5.84,-5.45 13,-3 0,0 -2,5 -2,5 0,0 4,4 4,4 3.83,0 17.83,-0.55 19.98,2.4 1.08,1.49 0.96,3.85 1.02,5.6 0,0 -14,-1 -14,-1 -11.75,0.06 -3.99,3.11 -20,1 -0.68,4.32 -1.15,3.63 -2.74,7.17 0,0 -2.27,6.44 -2.27,6.44 -1.49,2.22 -4.96,4.02 -7.53,2.67 -4.59,-2.41 -8.49,-11.56 -18.46,-12.28 -1.75,5.34 -3.97,4.17 -9,4 0,0 1,-8.08 1,-8.08 0,0 -8.99,0 -8.99,0 0,0 -31.01,-1.02 -31.01,-1.02 0,0 -57,0 -57,0 0,0 -16,0 -16,0 -15.2,0.06 -30.89,1.09 -46,-0.9 0,0 0.73,23.91 0.73,23.91 0,0 -0.73,53.09 -0.73,53.09 0,0 1,19 1,19 8.72,2.53 4.45,4.98 16,5 0,0 20,0 20,0 0,0 18,1 18,1 0,0 15,-1 15,-1 0,0 40,0 40,0 0,0 17,0.99 17,0.99 0,0 14,-0.8 14,-0.8 0,0 30,0 30,0 0,0 28,0.79 28,0.79 0,0 13,-0.98 13,-0.98 0,0 32,0 32,0 0,0 17,0.91 17,0.91 0,0 29,-0.91 29,-0.91 0,0 4,-4 4,-4 0,0 0,-21 0,-21 0,0 1.22,-17 1.22,-17 0,0 7.78,-17 7.78,-17 -17.26,0 -12.01,-0.76 -27,-4 -1.47,2.52 -5.67,10.04 -7.52,11.63 -2.85,2.45 -5.37,0.65 -5.31,-2.63 0.1,-4.75 7.59,-7.45 5.6,-12.96 -0.74,-2.05 -5.92,-6.51 -7.85,-9.05 -5.35,-7.08 -8.72,-14.05 -8.92,-23.23 0,0 -13.94,0 -13.94,0 -1.48,-0.51 -2.82,-1.19 -3.03,-2.85 -0.7,-5.51 13.61,-3.91 16.97,-3.91 -1.48,-9.47 2.87,-17.7 8.75,-24.91 2.32,-2.85 7.78,-6.73 8.26,-10.09 0.37,-2.56 -4.66,-10.88 -6.01,-14 7.67,-1.87 7.16,1.31 13,12 8.45,-4.44 11.26,-6.07 21,-5 0,0 -3.88,-20 -3.88,-20 0,0 0,-12 0,-12 0,0 0,-9.42 0,-9.42 -0.29,-2.54 0.24,-7.07 -0.86,-9.29 -1.34,-2.7 -5.59,-3.04 -8.26,-3.2 -7.87,-0.46 -23.11,1.36 -30,-1.09 -6.65,3.48 -8.06,0.73 -15,1.13 0,0 -24,0 -24,0 0,0 -32,0 -32,0 0,0 -26,0 -26,0 -5.46,-0.14 -14.99,-1.27 -19.91,0.76 -4.73,1.95 -5.38,6.7 -11.1,8.27 -5.48,1.51 -11.68,-3.24 -12.49,1.99 -0.43,2.7 2.2,7.95 2.27,10.13 0.07,2.4 -1.46,4.49 -0.95,6.51 0.32,1.27 1.22,2.12 2.33,2.74 6.7,3.73 15.82,-8.4 16.85,4.47 0,0 -8,0 -8,0 0.65,6.32 3.83,10.46 1.12,16.98 -2.33,5.65 -9.28,7.63 -12.7,1.8 -3.34,-5.68 -1.58,-11.15 0.58,-16.78 0,0 -9,0 -9,0 0.96,2.11 2.36,4.72 2.69,7 0.77,5.31 -3.03,14.6 -9.67,13.05 -8.96,-2.09 -5.59,-14.56 -3.02,-20.05 0,0 -9,-1 -9,-1 0.76,3.08 2.68,7.22 2.7,10 0.06,7.98 -7.56,17.09 -13.83,7.89 -3.56,-4.92 -0.94,-12.55 0,-17.89 0,0 -0.87,-1 -0.87,-1 z m 488,-247 c -0.82,3.74 5.25,3.7 8,4.37 9.95,2.45 19.57,5.77 28,11.8 24.44,17.48 36.35,38.75 36,68.83 -0.21,17.8 -7.67,34.77 -19.41,47.91 -15,16.79 -34.96,26.35 -57.59,26.09 0,0 -20,-2.12 -20,-2.12 -6.74,-1.67 -13.07,-4.97 -19,-8.48 -20.02,-11.87 -32.54,-29.38 -36.41,-52.4 -1.16,-6.85 -2.11,-11.92 -1.42,-19 2.75,-28.44 21.14,-53.13 47.83,-63.39 9.1,-3.5 19.35,-5.96 29,-3.61 0,0 1,-3 1,-3 -8.72,-2.99 -17.58,0.02 -26,2.65 -23.83,7.45 -40.81,22.57 -49.3,46.35 -3.06,8.56 -5.73,22.96 -5.26,32 0.44,8.41 2.47,15.24 5.56,23 9.4,23.58 27.24,40.89 52,47.85 12.31,3.45 14.71,3.22 27,2.23 11.79,-0.94 22.5,-3.28 33,-8.98 20.01,-10.86 32.94,-27.25 38.85,-49.1 0,0 2.46,-11 2.46,-11 0,0 0,-9 0,-9 0.42,-11.91 -1.27,-21.91 -5.76,-33 -7.34,-18.13 -23.52,-34.86 -41.55,-42.57 -4.16,-1.78 -14.58,-4.99 -19,-5.92 0,0 -8,-1.51 -8,-1.51 z m -544,6 c -23.94,3.16 -42.9,12.06 -56.45,33 -12.460001,19.24 -16.510001,46.12 -9.190001,68 1.45,4.32 4.32,9.03 6.65,13 10.880001,18.48 21.010001,26.42 40.990001,33 6.3,2.07 14.37,3.92 21,4 18.25,0.21 36.63,-4.55 50.74,-16.74 14.88,-12.87 26.23,-32.28 26.26,-52.26 0.05,-31.27 -11.87,-56.28 -41,-70.35 -13.01,-6.28 -20.83,-6.65 -35,-6.65 0,0 0,3 0,3 30.96,0.02 61.15,18.21 70,49 1.67,5.82 2.92,9.87 3,16 0.15,13.28 -1.55,24.39 -8.4,36 -2.57,4.34 -4.08,7.51 -8.6,10 1.43,-5.85 4.38,-8.82 7.11,-14 2.08,-3.94 4.12,-10.6 5.37,-15 1.28,-4.53 0.54,-11.05 0.52,-16 -0.07,-13.85 -4.9,-25.86 -12.87,-37 -8.67,-12.11 -26.12,-23.31 -41.13,-24.78 -2.55,-0.06 -11.68,-1.36 -13.41,0 -1.19,0.67 -1.18,1.62 -1.59,2.78 7.56,0.91 12.25,0.64 20,2.91 19.28,5.65 34.19,18.21 41.74,37.09 7.84,19.58 3.24,45.76 -10.08,62 -6.25,7.62 -14.85,13.27 -23.66,17.49 -7.7,3.69 -17.38,6.81 -26,6.47 -12.99,-0.5 -26.06,-3.8 -37,-11.06 -30.380001,-20.19 -38.560001,-58.02 -19.53,-88.9 6.68,-10.85 19.63,-22.74 31.53,-27.55 0,0 20,-5.45 20,-5.45 0,0 0,-2 0,-2 -4.75,-0.95 -7.35,0.19 -12,1.21 -12.91,2.85 -24.88,9.86 -33.65,19.66 -26.190001,29.26 -26.080001,71.42 2.65,99.09 19.1,18.4 52.15,22.59 76,11.73 4.28,-1.95 12.41,-7.05 15.83,-10.16 4.14,-3.76 4.16,-7.04 10.17,-6.53 -7.42,10.31 -19.05,17.31 -31,21.19 -13.78,4.47 -10.83,4.98 -26,4.81 -24.17,-0.29 -48.38,-15.3 -60.650001,-36 -3.79,-6.4 -9.22,-23.63 -9.35,-31 0,0 0,-8 0,-8 0.29,-24.26 18.110001,-49.85 39.000001,-61.21 5.49,-2.98 10.93,-5.18 17,-6.66 4.12,-1 8.32,-0.68 11,-4.13 z m 60,134 c 5.4,-2.58 8.61,-7.23 12.08,-12 6.04,-8.32 12.47,-21.66 13.25,-32 0,0 0,-10 0,-10 0,0 0,-8 0,-8 -1.82,-32.76 -23.18,-59.26 -54.33,-69.25 -7.91,-2.54 -17.69,-2.75 -26,-2.75 0,0 0,2 0,2 13.31,0 28.2,2.97 40,9.39 11.07,6.01 25.36,21.35 31.01,32.61 4.17,8.32 6.05,16.85 7.14,26 0.36,2.94 0.88,4.95 0.75,8 -0.35,7.92 -3.18,24.03 -6.57,31 -4.45,9.16 -11.88,16.57 -17.33,25 z m 479,-124 c -0.82,-4.67 -2.24,-5.2 -7,-4.83 -7.41,0.59 -21.36,4.96 -28,8.31 -25.01,12.6 -35.35,33.81 -38.71,60.52 -0.65,5.13 0.02,8.04 0.71,13 1.78,12.88 7.75,26.88 16.01,36.96 11.77,14.35 35.17,26.45 53.99,26.03 5.45,-0.13 18.89,-1.48 24,-2.91 24.03,-6.75 43.49,-26.17 50.29,-50.08 4.24,-14.89 3.12,-27.19 -0.52,-42 -3.64,-14.79 -11.47,-25.86 -22.77,-35.82 -13.11,-11.55 -26.85,-16.87 -44,-19.18 1.68,4.06 5.98,3.5 10,4.43 5.7,1.32 16.1,5.38 21,8.51 19.44,12.4 35.89,34.24 36,58.06 0,0 0,8 0,8 -0.07,6.03 -0.78,7.36 -2.12,13 -3.28,13.85 -6.66,21.52 -16.89,32 -10.8,11.05 -19.48,17.61 -34.99,20.99 -12.93,2.81 -15.3,2.28 -28,0.6 0,0 -8,-0.99 -8,-0.99 -4.83,-1.16 -10.61,-4.08 -15,-6.44 -19.32,-10.34 -29.65,-24.95 -34.42,-46.16 -0.98,-4.32 -2.36,-8.55 -2.54,-13 -0.23,-5.61 1.2,-12.55 2.59,-18 5.94,-23.2 20.63,-39.97 43.37,-47.82 7.21,-2.49 17.5,-4.94 25,-3.18 z m 1,2 c 0,0 -8,0 -8,0 -13.95,0.17 -34.59,10.73 -43.82,21.01 -6.44,7.18 -11.77,18.65 -14.05,27.99 -8.64,35.38 9.89,68.9 44.87,79.97 10.96,3.47 20.78,3.34 32,1.73 25.46,-3.64 48.09,-24.78 53.96,-49.7 1.2,-5.07 0.8,-6.26 1.18,-10.96 1.12,-13.82 -0.05,-20.93 -4.83,-34.04 -5.93,-16.26 -23.35,-31.52 -39.31,-37.62 -6.22,-2.37 -13.36,-5.12 -20,-3.38 3.47,3.14 15.53,5.07 21,7.51 11.97,5.34 24.84,16.24 31.55,27.49 5.65,9.48 9.77,21.87 9.41,33 -0.24,7.55 -3.08,22.25 -6.14,29 -3.93,8.64 -16.78,22.84 -24.83,27.65 -8.06,4.81 -21.58,8.83 -30.99,9.25 0,0 -15,-1.69 -15,-1.69 0,0 -8,-1.29 -8,-1.29 -3.27,-0.92 -6.97,-2.9 -10,-4.45 -17.41,-8.91 -27.33,-22.66 -31.87,-41.47 -2.49,-10.32 -3.71,-14.28 -1.47,-25 4.58,-21.84 14.04,-35.33 34.34,-45.47 4.85,-2.43 13.61,-5.05 19,-5.44 5.04,-0.37 9.05,1.48 11,-4.09 z m -618.000001,0 c 0,0 -1,0 -1,0 0,0 1,1 1,1 0,0 0,-1 0,-1 z m 78.000001,0 c -22.6,1.85 -43.46,17 -52.25,38 -4.600001,10.98 -4.770001,17.48 -4.750001,29 0.02,13.63 3.260001,21.08 11.090001,32 3.48,4.85 4.27,6.58 8.91,10.91 6.46,6.02 12.8,8.87 21,11.6 7.44,2.49 13,4.04 21,3.75 16.42,-0.6 29.52,-3.69 41.83,-15.55 7.4,-7.12 14.39,-17.78 17.26,-27.71 1.2,-4.18 1.72,-10.59 1.87,-15 0.74,-21.49 -10.82,-43.47 -29.96,-53.68 -11.13,-5.94 -19.74,-6.32 -32,-6.32 0,0 0,4 0,4 12.3,0 16.53,0.31 28,5.78 6.64,3.18 9.88,5.92 14.96,11.22 16.14,16.83 18.87,36.77 10.44,58 -2.96,7.46 -4.38,10.6 -9.82,16.83 -6.69,7.65 -21.65,15.69 -31.58,17.69 0,0 -12,0.71 -12,0.71 -22.09,-0.01 -43.08,-14.37 -52.32,-34.32 -1.44,-3.09 -1.94,-5.72 -2.88,-8.91 -1.39,-4.67 -2.6,-7.99 -2.76,-13 -0.19,-6.06 1.54,-13.28 3.47,-19 1.3,-3.88 4.45,-11.58 6.58,-14.91 9.21,-14.43 27.64,-26.29 44.91,-27.09 0,0 -1,-4 -1,-4 z m 540,7 c -7.5,-2.13 -13.86,-0.08 -21,2.26 -19.14,6.27 -33.17,19.95 -38.51,39.74 -1.02,3.79 -2.39,13.08 -2.48,17 -0.63,27.84 21.91,53.66 48.99,58.68 28.5,5.28 58.64,-10.67 69.55,-37.68 5.69,-14.1 4.38,-36.24 -1.86,-50 -10.02,-22.06 -28.8,-32.69 -51.69,-37 1.78,5.08 5.13,3.99 10,5.44 4.37,1.3 11.12,4.39 15,6.79 17.71,10.98 28.75,27.61 29.16,48.63 0.22,11.03 -1.23,20.09 -6.14,30.14 -3.7,7.57 -8.72,12.73 -15.02,18.13 -9.15,7.85 -23.63,14.28 -36,13.35 0,0 -9,-1.33 -9,-1.33 -11.95,-1.46 -21.93,-5.04 -30.99,-13.32 -10.47,-9.59 -19.23,-28.94 -19.19,-43.25 0.06,-15.49 8.18,-32.36 20.19,-42.06 8.21,-6.62 16.66,-10.23 26.99,-12.06 5.11,-0.9 6.34,0.15 12,-1.46 0,0 0,-2 0,-2 z m -85,-5 c -6.14,6.84 -9.83,15.56 -13.2,24 -6.3,15.8 -8.58,31.13 -6.97,48 0,0 0.64,9 0.64,9 0.75,3.91 1.92,5.52 3.14,9 6.67,18.91 12.94,33.03 28.39,46.83 7.8,6.97 23.23,16.59 33,20.5 6.02,2.41 16.46,3.39 20.25,8.29 4.76,6.15 2.76,16.16 2.75,23.38 0,0 0,12 0,12 -0.02,3.57 -0.18,7.6 -1.34,11 -4.1,12.01 -17.07,13.32 -27.66,14.47 -3.56,0.39 -8.57,1.22 -12,1.02 -4.06,-0.24 -3.86,-0.63 -8,0.51 2.67,5.91 5.9,7.85 3.11,15 -3.38,8.64 -12.33,7.61 -14.68,-1 -1.3,-4.76 0.98,-9.33 1.57,-14 0,0 -7,0 -7,0 2.71,12.26 3.4,6.92 0,20 5.71,-0.56 9.02,0.9 6,7 0,0 2,3 2,3 0,0 -12,1 -12,1 5.03,-6.07 6.97,-3.49 9,-10 -2.94,1.63 -3.73,3.24 -6,0 -4.38,2.67 -3.9,3.9 -9,4 0,0 -4.83,9 -4.83,9 0,0 -6.17,13 -6.17,13 0,0 14.71,-2.02 14.71,-2.02 0,0 10.29,-7.98 10.29,-7.98 0,0 -1,10 -1,10 0,0 -25,3 -25,3 0,0 -12,0 -12,0 0,0 0,-2 0,-2 0,0 6.44,-2.58 6.44,-2.58 0,0 10.56,-20.42 10.56,-20.42 0,0 -4,-1 -4,-1 0,0 0,-2 0,-2 0,0 10,-1 10,-1 -5.31,-9.53 -2.98,-10.18 -1,-20 0,0 -7,0 -7,0 1.56,3.32 3.18,6.19 2.58,10 -2.22,14.3 -17.75,12.14 -16.47,-2 0.29,-3.19 1.83,-6.03 2.89,-9 -2.54,-0.82 -10.21,-2.81 -6.99,-7.1 3.05,-4.23 12.47,4.87 17.4,0 2.21,-2.05 0.4,-4.54 1.09,-7.9 0.84,-4.05 4.68,-7.34 3.77,-10.91 -0.54,-2.13 -3.32,-4.34 -4.73,-6.17 -1.09,-1.42 -2.15,-3.9 -3.84,-4.56 -2.07,-0.81 -4.58,0.79 -6.7,1.53 -2.59,0.42 -7.14,0.11 -10,0 0,0 -13,0 -13,0 0,0 -18,-0.89 -18,-0.89 0,0 -15,0.96 -15,0.96 0,0 -15,0 -15,0 0,0 -12,-0.96 -12,-0.96 0,0 -56,1 -56,1 -2.1,0.04 -4.78,-0.04 -6.35,1.6 -2.13,2.22 -1.53,14.97 -1.24,18.4 0.24,5.01 -0.97,8.79 0,14 0,0 2.42,8 2.42,8 0.94,3.77 1.62,8.58 4.73,11.28 2.14,1.86 7.61,3.08 10.44,3.72 3.28,-6.31 3.76,-12.83 12,-12 0,0 -7,16 -7,16 8.58,5.46 10.8,11.31 14.12,11.82 3.45,0.53 4.74,-4.41 5.82,-6.82 2.83,-6.3 7.73,-18.46 9.06,-25 0,0 -4,0 -4,0 5.49,-5.59 14.78,-5.1 21,-1 0,0 -9,0 -9,0 0,0 -8.54,21 -8.54,21 0,0 -3.46,11 -3.46,11 9.54,-0.44 11.45,-1.2 15.08,-10 0,0 3.39,-8 3.39,-8 0.98,-2.71 2.65,-13.05 6.36,-12.38 3.09,0.56 2.91,5.15 2.32,7.38 -1.67,6.31 -4.11,14.6 -8.18,19.73 -5.11,6.42 -22.14,7.25 -29.97,7.27 2.16,4.22 3.79,7.23 4.68,12 0.5,2.7 0.06,5.69 3.45,6.4 5.63,1.18 12.98,-4.34 13.87,6.6 0,0 -17,0 -17,0 -0.14,14.99 -6.89,24.6 -19,33 2.78,11.64 11.61,13.02 2,19 -2.31,-5.68 -4.72,-12.97 -11,-15 0,0 -6.31,12.91 -6.31,12.91 -2.22,3.89 -5.23,7.63 -6.48,12.09 0,0 0,29 0,29 -0.15,11.19 4.25,8.82 21.79,9 0,0 19,1 19,1 0,0 13,-1 13,-1 0,0 41,0 41,0 0,0 14,0.99 14,0.99 0,0 20,-0.99 20,-0.99 0,0 27,0 27,0 0,0 11,0.56 11,0.56 0,0 33,-0.56 33,-0.56 0,0 22,0 22,0 5.15,0.02 15.56,1.84 19.83,0.71 2.75,-0.73 4.43,-3.62 12.17,-6.71 0,0 -1.13,-36 -1.13,-36 0,0 0,-60 0,-60 -10.04,2.14 -7.14,4.16 -18.87,3.74 0,0 -55,-1.56 -55,-1.56 0,0 -14,0.82 -14,0.82 0,0 -30,0 -30,0 -0.02,1.85 0.1,4.92 -0.85,6.56 -1.5,2.48 -5.51,2.01 -7.24,0 -0.78,-0.84 -1.41,-2.49 -1.91,-3.56 -5.69,2.2 -6.97,2.86 -8,9 -4.79,0.17 -6.12,-0.03 -7,5 0,0 -11,-3 -11,-3 1,-4.75 -2.08,-10.39 -7.04,-11.87 0,0 -7.54,0 -7.54,0 -7.11,-1.4 -3.66,-2.32 -14.42,-2.41 -2.74,-0.02 -9.37,0.27 -9.37,-3.73 0,-1.23 0.64,-2.27 1.69,-2.94 1.52,-0.83 10.17,-0.01 12.68,0 6.24,-0.17 5.2,-1.38 10.07,-4.05 -0.39,-1.86 -0.99,-3.93 0,-5.68 1.8,-2.83 9.6,-3.27 8.93,4.68 0,0 6,-5 6,-5 -1.56,-8.29 -0.67,-11.31 9,-12 0.73,4.29 7.25,10.46 11.09,12.43 1.88,0.96 3.86,1.25 5.91,1.57 0.52,-2.08 0.68,-3.55 3.09,-4.34 7.98,-2.64 4.01,9.68 8.22,11.74 2.13,1.04 16.31,0.57 19.69,0.6 0,0 23,0.98 23,0.98 0,0 13,-0.71 13,-0.71 0,0 22,0 22,0 0,0 13,0 13,0 4.2,0.42 13.56,1.36 16.98,0 1.91,-0.77 5.22,-3.24 3.85,-5.68 -1.14,-2.04 -6.75,-1.6 -8.83,-1.59 -4.05,0.03 -13.64,1.57 -15.98,-2.18 -1.21,-1.96 -1.02,-5.55 -1.02,-7.82 0,0 0,-24 0,-24 0.03,-4.67 -0.36,-6.54 3.87,-9 0,0 0,24 0,24 -0.39,2.6 -1.56,8.12 0.74,9.98 1.55,1.25 5.43,1.02 7.39,1.02 0,0 17,0 17,0 0,0 0,-35 0,-35 0,0 4,0 4,0 0,0 -0.57,29 -0.57,29 0,0 1.18,5.01 1.18,5.01 0,0 7.39,0 7.39,0 0,0 17,0.99 17,0.99 0,-8.36 -0.56,-28.25 3,-35 1.89,7.11 1.09,22.04 1,30 -0.03,2.38 -0.32,8.75 -1.42,10.69 -1.39,2.44 -4.13,2.26 -6.58,2.31 -6.28,0.11 -13.98,0.46 -20,-1 -2.68,9.43 -0.01,19.43 0,29 0,0 -0.99,17 -0.99,17 0,0 0,23 0,23 0,0 0,16 0,16 0.01,11.59 1.9,9.29 0,23 0,0 8.27,5.44 8.27,5.44 2.48,0.95 14.29,0.55 17.72,0.56 0,0 12,0.78 12,0.78 0,0 6,0 6,0 0,0 7,0 7,0 0,0 20,0 20,0 0,0 20,-0.78 20,-0.78 0,0 40,1 40,1 3.23,-0.04 7.89,-0.1 10.3,-2.56 3.23,-3.29 3.69,-13.89 3.7,-18.44 0,0 0,-13 0,-13 0,0 -0.81,-16.99 -0.81,-16.99 0,0 0,-7.52 0,-7.52 0,0 0,-10.49 0,-10.49 0,0 0,-12 0,-12 0,0 0.51,-12 0.51,-12 -0.08,-2.84 -0.61,-3.83 0,-7 0,0 0,-7 0,-7 0,0 -0.67,-20 -0.67,-20 0,0 0.92,-12.96 0.92,-12.96 0,0 0,-36.04 0,-36.04 0.04,-3.96 -0.27,-13.45 -3.65,-16.01 -3.37,-2.54 -16.77,-1 -21.3,-0.99 0,0 -26,0 -26,0 0,0 -12,-0.95 -12,-0.95 0,0 -18,0 -18,0 0,0 -10,0.78 -10,0.78 0,0 -13,-0.96 -13,-0.96 0,0 -14.96,0 -14.96,0 -2.71,-0.87 -4.82,-3.26 -8.04,-4.87 0,0 -1,29 -1,29 0,0 19,0 19,0 3.21,0.06 5.88,0.01 7.69,3.15 1.26,2.2 1.28,5.37 1.31,7.85 0,0 -1,31 -1,31 0,0 -2,0 -2,0 0,0 -1,-34 -1,-34 0,0 -26,-1 -26,-1 0,0 0,35 0,35 0,0 -4,0 -4,0 0,0 0,-35 0,-35 0,0 -26,1 -26,1 0,0 0,23 0,23 0.01,5.55 1.06,7.19 -2,12 0,0 -1,-12 -1,-12 0,0 1,-32 1,-32 0,0 27,1 27,1 0,0 -2,-27 -2,-27 -3.36,3.3 -8.27,4.03 -10.4,-1.11 -0.83,-2 -0.62,-8.44 -0.69,-10.89 0.14,-3.75 1.28,-18.37 0,-20.78 -2.99,-5.05 -10.96,-3.65 -15.92,-4.66 -12.37,-2.51 -22.31,-7.31 -32.99,-13.86 -21.88,-13.42 -37.32,-34.77 -43.53,-59.7 0,0 -1.75,-11 -1.75,-11 -0.69,-4.84 -1.58,-6.64 -1.71,-12 -0.21,-9.6 3.55,-25.88 6.85,-35 1.67,-4.6 4.09,-9.8 6.59,-14 3.49,-5.86 7.59,-8.41 3.55,-15 z m -454,5 c -9.95,0.84 -22.1,5.37 -29.91,11.61 -2.43,1.93 -4.78,4.9 -6.8,7.3 -13.23,15.73 -18.61,37.42 -11.18,57.09 2.4,6.34 6.49,12.31 10.93,17.39 4.3,4.91 11.08,9.52 16.96,12.35 8.08,3.88 17.1,5.36 26,5.26 22.66,-0.26 43.76,-15.98 49.95,-38 1.28,-4.56 1.1,-13.07 1.05,-18 -0.15,-12.06 -5.66,-24.87 -14.04,-33.49 -11.54,-11.88 -23.99,-14.29 -39.96,-14.51 0,0 0,4 0,4 5.43,-1.2 9.67,-0.16 15,1.13 21.18,5.11 36.48,23.89 35.99,45.87 -0.59,25.94 -20.81,47.99 -46.99,49.25 -8.5,0.41 -20.73,-2.32 -28,-6.71 -8.74,-5.29 -15.48,-12.5 -20.22,-21.54 -6.47,-12.36 -8.01,-23.62 -3.75,-37 3.63,-11.44 13.68,-24.79 23.97,-30.91 3.41,-2.02 8.17,-3.89 12,-4.93 1.8,-0.49 6.16,-1.14 7.4,-2.17 1.4,-1.15 1.32,-2.41 1.6,-3.99 z m 539,5 c -15.08,0.14 -31.49,5.56 -41.87,17.01 -11.87,13.09 -16.94,36.15 -11.54,52.99 5.86,18.24 22.19,31.48 40.41,35.87 2.74,0.66 8.29,1.79 11,1.79 23.71,0.03 47.3,-15.61 54.09,-38.66 1.95,-6.61 2.05,-13.15 1.9,-20 -0.46,-19.64 -12.28,-37.42 -28.99,-47.19 -7.46,-4.36 -14.32,-6.73 -23,-6.81 2.87,4.3 11.23,4.57 16,6.75 8.95,4.08 20.74,13.82 25.79,22.25 9.71,16.2 9.51,40.05 -0.76,56 -1.93,3.01 -4.52,5.48 -7.03,8 -9.86,9.89 -19.74,15.4 -34,15.96 -6.59,0.26 -19.06,-2.09 -25,-4.97 -6.97,-3.37 -10.47,-5.73 -15.79,-11.43 -7.23,-7.74 -14.5,-23.88 -14.17,-34.56 0.69,-22.3 17.56,-43.94 39.96,-47.86 4.74,-0.65 7.26,-1.19 12,0 0,0 1,-5.14 1,-5.14 z m 3,102 c 0,0 14,-4.86 14,-4.86 12.24,-5.08 19.61,-11.25 25.88,-23.14 5.26,-9.98 4.24,-16.17 4.12,-27 -0.27,-23.01 -22.17,-44.93 -45,-46 1.69,4.84 3.56,3.51 8,4.9 3.57,1.12 8.86,3.62 12,5.65 11.76,7.59 17.9,15.94 21.37,29.45 1.01,3.93 1.77,6.88 1.54,11 -0.51,8.93 -3.28,17.52 -8.15,25 -11.55,17.71 -28.8,23.14 -48.75,18.38 -5.77,-1.37 -8.77,-1.93 -14.01,-5.34 -19.61,-12.79 -26.2,-41.72 -12.37,-61.04 3.67,-5.12 9.9,-10.26 15.37,-13.4 6.9,-3.96 15.22,-4.59 23,-4.6 0,0 0,-3.84 0,-3.84 0,0 -12,0 -12,0 -6.64,1.33 -19.1,8.28 -23.87,13.02 -8.8,8.73 -13.4,24.63 -13.12,36.82 0.23,9.6 4.16,18.38 9.87,25.96 6.23,8.28 19.03,15.23 29.12,17.37 5.84,1.24 7.45,-0.3 13,1.67 z m -542,-100 c -8.17,1.54 -18.37,4.73 -24.86,10.24 -23.72,20.75 -26.97,57.09 0,77 3.98,3.06 9.91,6.06 14.86,7.46 5.49,1.55 12.31,2.61 18,2.21 9.77,-0.68 21.83,-5.24 28.9,-12.09 2.48,-2.41 3.96,-4.94 5.78,-7.82 2.57,-4.08 5.12,-8.31 6.39,-13 1.25,-4.61 0.98,-11.13 0.93,-16 -0.14,-11.93 -5.96,-24.01 -15,-31.79 -8.64,-7.43 -20.99,-9.21 -32,-9.21 0,0 1,5 1,5 23.27,-3.77 43.15,18.85 42.1,41 -1.09,23.12 -21.14,40.86 -44.1,39.96 -18.17,-0.71 -32.52,-12.43 -39.2,-28.96 -2.17,-5.36 -3.72,-11.14 -3.28,-17 1.67,-22.19 18.63,-39.92 40.48,-43 0,0 0,-4 0,-4 z m 539,16 c -0.34,-1.49 -0.42,-2.96 -1.74,-4.01 -3.57,-2.84 -15.7,1.76 -19.26,3.73 -13.8,7.66 -20.77,19.51 -21.63,35.28 -0.17,3.13 0.96,8.9 1.79,12 7.04,26.59 38.91,36.61 61.84,23.41 9.74,-5.61 17.63,-16.01 19.44,-27.24 0,0 0.51,-10.21 0.51,-10.21 0.28,-11.05 -4.74,-21.88 -12.12,-29.95 -7.1,-7.75 -15.18,-10.79 -24.83,-14.01 0,0 -1,4 -1,4 16.34,2.56 31.94,17.61 34.68,34 3.96,23.79 -15.22,46.92 -39.68,45.96 -17.25,-0.68 -30.76,-11.64 -35.66,-27.96 -0.64,-2.13 -1.76,-4.86 -1.91,-7 -0.25,-3.37 1.16,-10.7 2.24,-14 2.36,-7.23 7.11,-13.96 13.5,-18.24 7.47,-5.01 15.17,-5.76 23.83,-5.76 z m -539,-9 c -5.66,1.28 -12.87,3.52 -17.72,6.72 -11.06,7.33 -19.76,22.88 -19.24,36.28 0.75,19.41 13.7,35.26 32.96,38.91 2.94,0.55 6,1.12 9,0.91 10.72,-0.77 21.57,-4.54 28.79,-12.83 13.88,-15.95 11.28,-45.08 -6.79,-56.88 -7.4,-4.83 -15.54,-5.11 -24,-5.11 0,0 1,4 1,4 5.52,-0.26 8.75,-0.24 14,1.83 28.46,11.18 26.58,47.93 1,61.41 -4.94,2.61 -12.72,3.2 -18.28,2.91 -4.6,-0.25 -9.73,-2.14 -13.72,-4.39 -10.7,-6.05 -20.7,-19.89 -19.68,-32.76 1.35,-17.03 15.09,-34.18 32.68,-36 0,0 0,-5 0,-5 z m 539,15 c -2.37,-6.77 -12.1,-3.37 -17,-1.02 -12.21,5.87 -17.52,15.93 -18.83,29.02 -1.57,15.67 6.77,27.05 20.83,33.25 3.74,1.65 9.92,3.35 14,3.09 14.72,-0.94 30.16,-10.53 34.18,-25.3 0.74,-2.72 0.8,-8.11 0.82,-11.04 0.07,-11.24 -2.62,-19.77 -11.09,-27.71 -6.04,-5.67 -11.56,-8.83 -19.91,-9.29 0,0 0,3 0,3 5.94,0.94 8.1,2.29 13,5.72 5.61,3.93 9.83,7.8 12.52,14.28 8.97,21.59 -6.44,46.73 -30.52,45.96 -31.09,-1 -42.15,-39.76 -17,-55.03 6.52,-3.96 11.56,-4.91 19,-4.93 z m -540,-7 c -13.14,4.39 -23.28,11.96 -27.07,26 -6.59,24.36 15.27,44.65 39.07,40.68 23.67,-3.96 30.02,-33.24 18.63,-48.67 -7.14,-9.65 -15.43,-11 -26.63,-11.01 0,0 0,4 0,4 10.97,-1.08 22.52,4.31 27,15 5.68,13.56 -3.57,33.14 -18,36.47 -13.68,3.16 -25.92,-2.61 -32.98,-14.47 -2.68,-4.49 -3.86,-6.71 -4,-12 -0.31,-11.11 5.47,-21.83 14.98,-27.73 3.38,-2.09 6.36,-2.9 10,-4.27 0,0 -1,-4 -1,-4 z m 540,13 c -4.74,-6.32 -15.02,-1.68 -19.96,2.39 -8.55,7.04 -11.91,21.41 -7.92,31.61 8.61,22.01 38.21,22.31 51.24,4 2.99,-4.19 4.81,-13.92 4.42,-19 -0.19,-2.48 -1.58,-6.62 -2.49,-9 -1.73,-4.57 -4.19,-8.72 -7.91,-11.96 -4.08,-3.55 -9.08,-6.05 -14.38,-7.04 0,0 0,4 0,4 11.3,2.15 21.46,13.33 21.87,25 0.52,14.65 -12.2,27.94 -26.87,27.1 -19.13,-1.09 -31.48,-21.25 -19.45,-37.1 7.88,-10.36 13.75,-7.81 21.45,-10 z m -539,-5 c -16.86,2.18 -26.55,23.05 -19,38 4.95,9.81 14.36,14.21 25,13.98 23.4,-0.49 27.47,-28.58 15.53,-40.65 -5.32,-5.38 -11.54,-5.32 -18.53,-5.33 0,0 0,4 0,4 4.28,0.04 7.03,0.01 11,2 13.21,6.62 13.11,23.96 1.98,32.58 -7.15,5.55 -18.23,4.4 -24.94,-1.1 -2.68,-2.19 -5.39,-5.38 -6.94,-8.48 -2.31,-4.62 -2.58,-10.12 -1.01,-15 1.74,-5.37 4.46,-9.12 8.91,-12.61 4.09,-3.21 6.27,-2.3 8,-7.39 z m 543,2 c -2.09,5.72 3.01,6.22 7.9,10.62 4.48,4.03 6.27,8.39 6.06,14.38 -0.15,4.14 -1.29,7.6 -3.76,10.96 -1.91,2.61 -4.34,4.61 -7.2,6.12 -15.57,8.25 -34.74,-10.23 -23.57,-25.08 1.67,-2.22 4.02,-4.39 6.57,-5.57 2.83,-1.31 5.95,-1.36 9,-1.43 0,0 0,-4 0,-4 -5.22,0.05 -8.47,0.29 -12.96,3.41 -12.07,8.39 -12.89,31.68 6.96,37.45 4.27,1.53 6.82,0.84 11,0 11.46,-3.19 16.57,-9.03 16.95,-20.86 0.43,-13.4 -6.16,-19.5 -16.95,-26 z m -544,5 c -23.1,9.86 -14.38,41.43 9,37.79 11.62,-1.81 16.23,-17.92 9.35,-26.68 -2.83,-3.61 -6.13,-4.24 -10.35,-5.11 3.97,9.39 8.25,6.71 9.57,14 1.37,7.61 -6.29,14.25 -13.57,13.7 -3.03,-0.23 -5.74,-1.93 -7.96,-3.91 -5.95,-5.32 -7.33,-11.82 -3.03,-18.77 2.12,-3.44 4.69,-4.95 7.99,-7.02 0,0 -1,-4 -1,-4 z m 535,7 c -16.08,4.06 -14.46,27.85 2,29.43 2.5,0.24 4.68,-0.44 7,-1.28 15.12,-5.5 13.48,-27.21 -1,-32.15 2.27,7.51 8.95,7.06 8.74,16 -0.41,17 -21.26,16.04 -24.19,4 -1.59,-6.53 4.96,-8.75 7.45,-16 z m -533.05,1.2 c -13.23,4.25 -8.37,24.38 5.05,22.18 5.68,-0.93 8.28,-7.15 6.13,-12.17 0,0 -9.39,-9.47 -9.39,-9.47 0,0 -1.79,-0.54 -1.79,-0.54 z m 539.1,1 c -3.08,1.03 -9.29,6.54 -10.21,9.84 -1.53,5.48 2.48,10.6 8.16,10.47 11.37,-0.26 12.48,-16.91 2.05,-20.31 z m -662.050001,16.63 c -1.63,-0.11 -4.1,-0.72 -5.67,0 -3.84,1.19 -7.83,11.43 -9.33,15.17 12.68,4.59 14.97,-4.3 15,-15.17 z m 535.000001,11.17 c -1.64,-7.81 6.08,-7.5 8.57,-5.82 2.71,1.82 3.43,10.75 0.82,12.8 -1.48,1.17 -4.57,1.01 -6.39,1.02 0,0 -5,0 -5,0 1.64,-9.9 7.25,-3.71 10,-12 -3.81,0.65 -3.92,0.75 -6,4 0,0 -2,0 -2,0 z m -29,-1 c 5.15,0 18.11,-1.98 21.57,0.85 5.04,4.13 1.41,14.14 -2.83,17.59 -3.86,3.15 -11.1,3.59 -15.74,2.56 -2.84,5.91 -6.58,9.27 -5,16 -5.08,0.91 -10.59,2.25 -15,-1 8.64,-4.04 9.15,-9.27 13.31,-17 3.17,-5.89 6.84,-11.51 8.69,-18 0,0 -5,-1 -5,-1 z m 20,2.82 c -1.95,-0.16 -4.9,-0.91 -6.78,0 -3.07,1.01 -7.46,12.75 -9.22,16.18 10.72,0.99 14.15,-6.93 16,-16.18 z m 10,17.18 c 1.59,-2.26 1.58,-2.39 4,-1 0,0 -4,1 -4,1 z m -145,37.91 c 0,0 10,0 10,0 0,0 27,-0.91 27,-0.91 -1.32,5.28 -3.49,11.19 -9,13 0,0 0,-10 0,-10 0,0 -11.7,2.02 -11.7,2.02 0,0 -9.3,14.98 -9.3,14.98 0,0 12,-9 12,-9 -1.31,6.53 -6.78,16.87 -12,21 0,0 1,-9 1,-9 -5.23,2.68 -6.99,8.71 -9,14 0,0 4,3 4,3 0,0 -17,0 -17,0 0,0 4.5,-6.13 4.5,-6.13 3.7,-5.65 13.26,-23.66 14.5,-29.87 0,0 -5,-1 -5,-1 0,0 0,-2.09 0,-2.09 z m -111,77.09 c 0,0 9,-1 9,-1 0,0 -4,12 -4,12 0,0 -7,-1 -7,-1 0,0 0,-2 0,-2 0,0 5,-6 5,-6 0,0 -3,-2 -3,-2 z m 20,-1 c 0,0 1,0 1,0 0,0 -1,1 -1,1 0,0 0,-1 0,-1 z m -42,3 c 5.03,0.01 13.82,-1.59 16,4 0,0 -5.31,1.6 -5.31,1.6 0,0 -12.69,26.4 -12.69,26.4 10.75,-0.01 16.66,0.78 22,-10 0,0 2,0 2,0 0.74,3.79 0.37,10.64 -3.42,12.98 -1.7,0.99 -9.88,0.02 -12.58,0 0,0 -24,0 -24,0 0,0 0,-2.98 0,-2.98 0,0 6.61,-1.02 6.61,-1.02 0,0 5.39,-7.98 5.39,-7.98 0,0 10,-20 10,-20 0,0 -4,-3 -4,-3 z m 90,7 c 3.37,0.29 9.04,-0.22 11.57,1.89 5.55,4.64 0.91,13.79 -5.57,15.47 -3.03,0.78 -4.71,-0.75 -7,-2.36 -1.58,8.73 -2.02,11.27 -11,13 0,0 -1,-4 -1,-4 6.32,-3.3 11.74,-17.05 13,-24 z m 1,13 c 3.86,0.56 6.28,-0.09 7.6,-4.09 0.75,-1.32 1.28,-3.83 0,-4.74 -2.92,-1.63 -5.67,2.9 -6.47,4.83 0,0 -1.13,4 -1.13,4 z m 460,-11 c 0,0 0,4 0,4 0,0 0,-4 0,-4 z m -644,11 c 1.48,-0.31 5.44,-1.49 6.67,-1.15 3.92,1.11 0.44,8.13 -0.67,10.15 0,0 1,0 1,0 0,0 1,2 1,2 0,0 -9,0 -9,0 2.67,-5.83 2.24,-5.06 1,-11 z m 19,-1 c 0,0 -1,8 -1,8 0,0 2,0 2,0 0,0 -1,-8 -1,-8 z m 39,1 c 0,0 -1,8 -1,8 0,0 2,0 2,0 0,0 -1,-8 -1,-8 z m 331,0 c 0,0 -2,7 -2,7 0,0 2,0 2,0 0,0 0,-7 0,-7 z m 19,0 c -2.37,3.27 -2.15,4.65 0,8 0,0 0,-8 0,-8 z m -369,1 c 0,0 -2,6 -2,6 0,0 2,-6 2,-6 z m 388,0 c 0,0 -2,0 -2,0 0,0 1,6 1,6 0,0 1,-6 1,-6 z m 150,7 c 0.13,-1.6 0.08,-3.28 1.02,-4.69 3.64,-5.44 15.51,0.96 7.98,6.69 0,0 2,5 2,5 0,0 -12,1 -12,1 0.57,-4.83 1.06,-5.22 5,-8 0,0 -4,0 -4,0 z m -580,-6 c 0,0 2,0 2,0 -0.85,5.5 -2.23,14.78 -8,17 0,0 -1,-14 -1,-14 -8.1,2.82 -10.83,12.36 -12.84,20 -0.7,2.64 -2.65,8.55 1.05,9.74 4.83,1.55 6.8,-4.68 13.79,-6.74 -3.79,6.99 -16.25,16.42 -20.85,4.98 -2.48,-6.15 0.62,-14.49 3.65,-19.98 2.37,-4.3 6.18,-8.36 11.2,-9.4 5.54,-1.15 5.89,2.79 11,-1.6 z m 567,28 c -2.11,11.24 -13.6,18.62 -19.49,11.77 -6.15,-7.15 1.81,-24.17 7.66,-29.54 5.19,-4.77 9.09,-2.5 12.83,-3.23 2.26,-0.45 4.81,-2.06 7,-3 0,0 1,1 1,1 0,0 -6.92,15.41 -6.92,15.41 0,0 -3.08,1.59 -3.08,1.59 0,-2.74 0.89,-11.96 -3.95,-11.09 -1.66,0.3 -2.73,1.85 -3.52,3.19 0,0 -1.81,3.9 -1.81,3.9 -3.98,9.09 -5.5,12.07 -3.72,22 0,0 14,-12 14,-12 z m 18,-23 c 0,0 -1,0 -1,0 0,0 1,1 1,1 0,0 0,-1 0,-1 z m -169,6 c 0,0 -1,0 -1,0 0,0 1,1 1,1 0,0 0,-1 0,-1 z m -181.1,1 c -6.68,0.02 -8.49,0.23 -14.9,2.82 -3.77,1.53 -6.78,3.17 -10,5.7 -2.66,2.08 -9.87,8.48 -9.13,12.21 0.52,2.59 8.71,6.32 11.13,7.41 0,0 8,3.35 8,3.35 4.34,2.06 12.39,7.48 14.9,-0.62 0.16,-1.31 0.1,-4.4 0,-5.87 0,0 0,-25 0,-25 z m 5.1,1 c -1.4,3.53 -1.47,23.55 -1,28 5.54,-8.17 3.29,-19.2 1,-28 z m 9,1 c 0,0 1.24,15 1.24,15 0,0 -4.24,16 -4.24,16 0,0 25,-15 25,-15 -6.23,-9.73 -11.8,-12.14 -22,-16 z m -121,19 c -3.62,6.22 -3.09,18.76 -3,26 0.09,6.46 1.4,7.17 2,13 5.01,-3 2.05,-4.35 2.34,-13 0,0 0,-22 0,-22 -0.12,-2.06 -0.52,-2.3 -1.34,-4 z m 146,0 c -6.84,1.39 -7.84,3.65 -13.17,7.26 0,0 -16.83,9.74 -16.83,9.74 0,0 0,6 0,6 0,0 31,15 31,15 7.8,-17.8 2.87,-21.45 -1,-38 z m 70,0 c -2.21,5.58 -0.07,12.09 0,18 0,0 -0.63,13 -0.63,13 0.21,3.7 0.51,5.92 3.6,8 0.07,-13.95 2.23,-11.18 0,-28 -0.62,-4.33 -0.26,-7.37 -2.97,-11 z m -146,3 c -6.23,11.92 -4.94,25.81 2,37 0,0 19,-11.3 19,-11.3 0,0 10,-5.7 10,-5.7 -2.52,-7.48 -6.28,-7.2 -13,-10.31 -4.64,-2.14 -13.85,-6.94 -18,-9.69 z m 173,5 c 0,0 -2,0 -2,0 0,0 0,22 0,22 0,0 2.96,0 2.96,0 0,0 0,-12 0,-12 0,0 -0.96,-10 -0.96,-10 z m -267,1 c 0,0 -3,0 -3,0 0,0 0,21 0,21 0,0 3,0 3,0 0,0 0,-21 0,-21 z m 15,0 c -1.9,4.78 -2.04,17.87 1,22 -0.2,-9.69 -1.57,-5.8 2,-15 -2.76,-2.8 -2.68,-3.12 -3,-7 z m -4,2 c 0,0 -8,2 -8,2 0,0 1,13 1,13 0,0 8,2 8,2 0,0 -1,-17 -1,-17 z m 242.9,0 c 0,0 0,9 0,9 0,0 -0.9,7 -0.9,7 0,0 9,-2 9,-2 0,-2.92 0.57,-9.01 -1.74,-11.03 0,0 -6.36,-2.97 -6.36,-2.97 z m -120.93,4.9 c -8.15,1.27 -5.38,8.65 -0.88,9.16 5.19,0.6 8.17,-6.78 0.88,-9.16 z m -89.97,0.1 c 0,0 -9,0 -9,0 0,0 1,8 1,8 0,0 9,-1 9,-1 0,0 -1,-7 -1,-7 z m 187,1 c 0,0 -9,-1 -9,-1 0,0 -1,8 -1,8 0,0 11,0 11,0 0,0 -1,-7 -1,-7 z m -99.01,44 c 0,0 0,-24 0,-24 0.06,-2.96 0.41,-7.02 -2.3,-8.95 -3.32,-2.37 -6.71,0.02 -9.69,1.67 0,0 -21,13.28 -21,13.28 6.76,12.65 19.21,17.99 32.99,18 z m 18.01,-2 c 5.26,-2.26 11.88,-6.85 15.7,-11.09 1.33,-1.48 3.79,-4.47 3.4,-6.61 -0.42,-2.28 -5.17,-3.52 -7.1,-4.42 -6.35,-2.95 -14.49,-8.33 -21,-9.88 5.19,8.33 3.44,5.05 6.43,13.72 3.33,9.67 2.82,7.88 2.57,18.28 z m -100,-30 c 0,0 17,0 17,0 0,0 -3,12 -3,12 0,0 5,-4 5,-4 -0.07,7.35 -7.74,8.11 -9.22,4.71 -1.02,-2.35 0.4,-5.5 1.22,-7.71 -6.21,5.49 -4.01,9.88 -11,9 0,0 5,-11 5,-11 0,0 -5,0 -5,0 0,0 0,-3 0,-3 z m 151,1 c 4.05,-0.28 15.56,-2.31 16.44,3.06 0.38,2.32 -1.68,6.46 -2.44,8.94 0,0 8,-2 8,-2 -2.9,5.34 -9.41,7.29 -11.89,2.72 -1.26,-2.33 0.2,-6.32 0.89,-8.72 -4.08,3.6 -4.9,6.12 -7,11 0,0 -2,0 -2,0 -1.51,-5.83 0.07,-6.61 2,-12 0,0 -4,0 -4,0 0,0 0,-3 0,-3 z m -65,1 c 0,0 -1,30 -1,30 7.95,2.06 8.06,-1.29 8,-8 -0.09,-8.62 -1.97,-14.96 -7,-22 z m -74,2 c 0,0 -1,0 -1,0 0,0 1,1 1,1 0,0 0,-1 0,-1 z m -33,11 c 0,0 11,-3 11,-3 0,0 -3,11 -3,11 -4.37,1.08 -5.44,2.24 -9,-1 0,0 4,-6 4,-6 0,0 -3,-1 -3,-1 z m 247,10 c -0.91,-0.29 -1.66,-0.27 -2.68,-1 -2.8,-2.02 -1.87,-5.39 0.83,-6.98 5.01,-2.95 13.65,2.13 10.16,7.8 -0.83,1.34 -2.13,2.2 -3.31,3.18 2.32,0.97 3.85,3.06 0.68,4.36 -2.18,0.9 -4.03,-0.74 -10.68,0.64 -1.12,-5.35 0.53,-5.7 5,-8 z m -277,-4 c 3.99,-2.32 14.48,-3.87 18.96,-2.57 4.32,1.26 5.94,5.61 4.01,9.57 -1.13,2.33 -4.12,5.13 -5.97,7 6.07,3.94 2.43,13.12 -1.73,17.35 -4.22,4.29 -12.78,3.46 -18.27,3.9 0,0 -8,0 -8,0 -3.23,-0.13 -4.27,-0.63 -6,-3.25 0,0 5,1 5,1 4.45,-8.7 12.73,-22.91 15,-32 0,0 -3,-1 -3,-1 z m 18,0 c -8.58,0.63 -9.6,3.43 -11,12 7.9,-0.47 9.79,-4.63 11,-12 z m 226,5 c 0,0 18,-2.19 18,-2.19 8.18,1.72 7.55,11.14 -1,16.19 3.7,8 1.55,15.42 -7,19 -2.77,1.15 -7.93,1.71 -11,2.05 -4.99,0.56 -11.7,2.84 -14,-3.05 5.84,-1 6.35,-4.11 9,-9 0,0 11,-21 11,-21 0,0 -5,0 -5,0 0,0 0,-2 0,-2 z m 34,-2 c 0,0 -1,0 -1,0 0,0 1,1 1,1 0,0 0,-1 0,-1 z m -16,4 c -7.55,-1.54 -8.85,5 -11,11 7.55,-0.27 9,-4.12 11,-11 z m -247,8.83 c -1.85,0.09 -7.3,-0.67 -8.59,0 -2.93,0.98 -7.61,12.94 -8.41,16.17 11.51,-0.54 13.64,-5.95 17,-16.17 z m 146,30.17 c 0,0 9.96,-19 9.96,-19 1.13,-2.26 2.89,-6.84 4.68,-8.48 2.28,-1.91 11.62,-2.46 13.76,0 1.88,2.03 1.32,5 0.55,7.44 -2.7,8.61 -9,9.97 -16.95,8.04 0,0 -3,12 -3,12 0,0 -9,0 -9,0 z m 25,-27 c -4.9,1.99 -14.54,9.44 -7,14 3.6,-4.48 7.28,-7.88 7,-14 z m 57,18 c 3.21,-0.61 7.16,-1.08 9.59,-3.43 2.39,-2.32 5.82,-9.84 2.81,-12.64 -1.35,-1.25 -3.68,-1.56 -5.4,-1.93 0,0 -7,18 -7,18 z m 291,17 c 0,0 3,0 3,0 0,0 0,3 0,3 0,0 -3,0 -3,0 0,0 0,-3 0,-3 z m 0,5 c 0,0 2,0 2,0 0,0 -2,4 -2,4 0,0 0,-4 0,-4 z m -143,12 c -3.32,2.11 -3.78,2.23 -5,6 0,0 -13,1 -13,1 0,0 -57,-1 -57,-1 0,0 -15,1 -15,1 0,0 -24,0 -24,0 0,0 -15,-0.82 -15,-0.82 0,0 -21,0 -21,0 0,0 -9,0.7 -9,0.7 0,0 -48,0 -48,0 0,0 -10.91,0 -10.91,0 0,0 -5.26,0 -5.26,0 0,0 -7.83,0 -7.83,0 0,0 -14,0 -14,0 -2.52,0.17 -5.4,0.07 -6.98,2.43 -1.51,2.27 -1.02,10.66 -1.02,13.69 0,0 23,1 23,1 0,0 0,20 0,20 -0.05,2.52 0.05,5.4 -2.31,6.98 -1.71,1.14 -4.69,1.01 -6.69,1.02 0,0 -32,-0.5 -32,-0.5 -2.48,-0.1 -7.78,0.73 -9.6,-0.54 -1.9,-1.33 -1.56,-3.93 -1.75,-5.96 -0.44,-4.44 -2.26,-16.01 0.95,-19.44 3.31,-3.54 16.47,-2.56 21.4,-2.56 0,0 0,-6 0,-6 0,0 -1.6,-8.4 -1.6,-8.4 0,0 -8.4,-1.6 -8.4,-1.6 0,0 -19,-1 -19,-1 0,0 -12,0.99 -12,0.99 0,0 -48,0 -48,0 0,0 -11,-0.92 -11,-0.92 0,0 -17,0.93 -17,0.93 0,0 -33,0 -33,0 0,0 -10,-0.95 -10,-0.95 0,0 -12,0 -12,0 0,0 -14,0.95 -14,0.95 0,0 -27,0 -27,0 0,0 -13,-1 -13,-1 0,0 -18,0 -18,0 0,0 -14,1 -14,1 0,0 -25.96,-1.31 -25.96,-1.31 0,0 -8.99,-4.69 -8.99,-4.69 0,0 0,46 0,46 0,0 0,22.73 0,22.73 0.14,4.22 -0.12,9.38 3.45,12.43 3.49,3 11.04,3.82 15.5,3.84 0,0 19,0 19,0 0,0 13,0.97 13,0.97 0,0 19,-0.88 19,-0.88 0,0 44,0 44,0 0,0 17,0 17,0 0,0 84,0 84,0 0,0 33,0 33,0 0,0 26,0.61 26,0.61 13.06,-0.65 8.12,-13.15 23,-12.64 10.51,0.36 12.11,9.83 15.41,11.89 2.09,1.31 10.77,1.05 13.59,1.05 0,0 14,0 14,0 0,0 16,-1 16,-1 0,0 57,1 57,1 0,0 13,-1 13,-1 0,0 33,0 33,0 0,0 9,0.88 9,0.88 0,0 17,0 17,0 0,0 12,-0.88 12,-0.88 0,0 22,0 22,0 8.93,0.11 19.46,3.09 27.96,-0.97 5.98,-2.86 6.01,-9.23 6.04,-15.03 0,0 0,-34 0,-34 0,0 0,-17 0,-17 0,0 0,-19 0,-19 z m -315,24 c 4.93,-3.19 21.95,-2.74 29,-4 0,0 1,4 1,4 -5.29,4.52 -4.39,7.94 -10,8 -1.64,6.99 -4.29,13.46 -10,18 0,0 0,-9 0,-9 -6.58,1.78 -7.54,6.22 -10,12 0,0 10.91,-1.02 10.91,-1.02 0,0 11.09,-9.98 11.09,-9.98 0,0 -3,13 -3,13 0,0 -31,2 -31,2 0,0 -1,-4 -1,-4 0,0 4,1 4,1 0,0 13,-29 13,-29 0,0 -4,-1 -4,-1 z m 20,-1 c 0,0 -8,1 -8,1 0,0 -5,14 -5,14 9.19,-1.53 6.82,-9.58 14,-7 0,0 -1,-8 -1,-8 z m 52,3 c 0,0 -37,0 -37,0 0,0 1.02,19.37 1.02,19.37 0,0 3.04,1.35 3.04,1.35 0,0 7.94,0 7.94,0 0,0 34,0 34,0 0,0 0,-19.72 0,-19.72 0,0 -8,2 -8,2 0,0 -1,-3 -1,-3 z m -19,52 c -11.38,7.44 -6.81,20.62 5,21.8 10.4,1.05 14.05,-9.76 9.91,-16.78 -3.39,-5.77 -7.95,-5.97 -13.91,-6.02 0,0 1,4 1,4 0,0 -2,-3 -2,-3 z m 3,45 c 5.54,3.33 2.58,5.8 6.31,9.44 2.48,2.43 7.26,3.85 10.68,3.64 1.72,-0.1 4.81,-0.72 4.39,-3.12 -0.51,-2.89 -5.99,-4.59 -8.17,-6.17 -6.84,-4.95 -7.27,-17.68 2.79,-18.68 3.68,-0.36 14.87,2.28 16.05,6.17 0.52,1.7 -0.61,4.96 -1.05,6.72 -4.99,-2.87 -5.64,-7.02 -10.72,-8.71 -3.14,-1.05 -7.84,0.34 -6.79,3.56 0.6,1.84 3,3.14 4.51,4.15 0,0 2,-3 2,-3 0,0 -1,3 -1,3 3.77,1.2 7.99,3.24 9.79,7.04 2.78,5.89 -3.16,11.67 -9.79,11.94 -13.56,0.56 -10.3,-4.53 -23,-2.98 0,0 4,-13 4,-13 z"
     style="fill:#1a1a1a" />
</svg>
